<mxfile host="app.diagrams.net" modified="2023-05-29T09:23:36.207Z" agent="Mozilla/5.0 (Windows NT 10.0; Win64; x64; rv:109.0) Gecko/20100101 Firefox/113.0" etag="3Vqa7euBfvu8WcUtUP1o" version="21.3.5" type="github">
  <diagram name="Page-1" id="5f0bae14-7c28-e335-631c-24af17079c00">
    <mxGraphModel dx="1391" dy="772" grid="1" gridSize="10" guides="1" tooltips="1" connect="1" arrows="1" fold="1" page="1" pageScale="1" pageWidth="1100" pageHeight="850" background="none" math="0" shadow="0">
      <root>
        <mxCell id="0" />
        <mxCell id="1" parent="0" />
        <mxCell id="xVB03OqdfiutpDRsIpEK-21" value="" style="rounded=0;whiteSpace=wrap;html=1;align=left;" vertex="1" parent="1">
          <mxGeometry x="410" y="20" width="280" height="350" as="geometry" />
        </mxCell>
        <mxCell id="xVB03OqdfiutpDRsIpEK-18" style="edgeStyle=orthogonalEdgeStyle;rounded=0;orthogonalLoop=1;jettySize=auto;html=1;exitX=0.5;exitY=0;exitDx=0;exitDy=0;entryX=0.5;entryY=1;entryDx=0;entryDy=0;" edge="1" parent="1" source="xVB03OqdfiutpDRsIpEK-9" target="xVB03OqdfiutpDRsIpEK-2">
          <mxGeometry relative="1" as="geometry" />
        </mxCell>
        <mxCell id="xVB03OqdfiutpDRsIpEK-42" style="edgeStyle=orthogonalEdgeStyle;rounded=0;orthogonalLoop=1;jettySize=auto;html=1;exitX=1;exitY=0.5;exitDx=0;exitDy=0;entryX=0;entryY=0.5;entryDx=0;entryDy=0;" edge="1" parent="1" source="xVB03OqdfiutpDRsIpEK-1" target="xVB03OqdfiutpDRsIpEK-9">
          <mxGeometry relative="1" as="geometry" />
        </mxCell>
        <mxCell id="xVB03OqdfiutpDRsIpEK-43" style="edgeStyle=orthogonalEdgeStyle;rounded=0;orthogonalLoop=1;jettySize=auto;html=1;exitX=0.5;exitY=0;exitDx=0;exitDy=0;entryX=0.5;entryY=1;entryDx=0;entryDy=0;" edge="1" parent="1" source="xVB03OqdfiutpDRsIpEK-1" target="xVB03OqdfiutpDRsIpEK-28">
          <mxGeometry relative="1" as="geometry" />
        </mxCell>
        <mxCell id="xVB03OqdfiutpDRsIpEK-44" style="edgeStyle=orthogonalEdgeStyle;rounded=0;orthogonalLoop=1;jettySize=auto;html=1;exitX=1;exitY=0.25;exitDx=0;exitDy=0;entryX=0;entryY=0.75;entryDx=0;entryDy=0;" edge="1" parent="1" source="xVB03OqdfiutpDRsIpEK-1" target="xVB03OqdfiutpDRsIpEK-2">
          <mxGeometry relative="1" as="geometry" />
        </mxCell>
        <mxCell id="xVB03OqdfiutpDRsIpEK-1" value="Ed" style="rounded=0;whiteSpace=wrap;html=1;" vertex="1" parent="1">
          <mxGeometry x="110" y="220" width="220" height="120" as="geometry" />
        </mxCell>
        <mxCell id="xVB03OqdfiutpDRsIpEK-20" value="" style="group" vertex="1" connectable="0" parent="1">
          <mxGeometry x="440" y="210" width="250" height="160" as="geometry" />
        </mxCell>
        <mxCell id="xVB03OqdfiutpDRsIpEK-9" value="&lt;div&gt;Lib&lt;/div&gt;&lt;div&gt;&lt;br&gt;&lt;/div&gt;&lt;div&gt;&lt;br&gt;&lt;/div&gt;&lt;div&gt;&lt;br&gt;&lt;/div&gt;&lt;div&gt;&lt;br&gt;&lt;/div&gt;&lt;div&gt;&lt;br&gt;&lt;/div&gt;&lt;div&gt;&lt;br&gt;&lt;/div&gt;" style="rounded=0;whiteSpace=wrap;html=1;" vertex="1" parent="xVB03OqdfiutpDRsIpEK-20">
          <mxGeometry width="220" height="140" as="geometry" />
        </mxCell>
        <mxCell id="xVB03OqdfiutpDRsIpEK-3" value="Plugin" style="rounded=0;whiteSpace=wrap;html=1;" vertex="1" parent="xVB03OqdfiutpDRsIpEK-20">
          <mxGeometry x="35" y="40" width="120" height="60" as="geometry" />
        </mxCell>
        <mxCell id="xVB03OqdfiutpDRsIpEK-4" value="Plugin" style="rounded=0;whiteSpace=wrap;html=1;" vertex="1" parent="xVB03OqdfiutpDRsIpEK-20">
          <mxGeometry x="45" y="50" width="120" height="60" as="geometry" />
        </mxCell>
        <mxCell id="xVB03OqdfiutpDRsIpEK-5" value="Plugin" style="rounded=0;whiteSpace=wrap;html=1;" vertex="1" parent="xVB03OqdfiutpDRsIpEK-20">
          <mxGeometry x="55" y="60" width="120" height="60" as="geometry" />
        </mxCell>
        <mxCell id="xVB03OqdfiutpDRsIpEK-6" value="Plugin" style="rounded=0;whiteSpace=wrap;html=1;" vertex="1" parent="xVB03OqdfiutpDRsIpEK-20">
          <mxGeometry x="65" y="70" width="120" height="60" as="geometry" />
        </mxCell>
        <mxCell id="xVB03OqdfiutpDRsIpEK-2" value="Engine" style="rounded=0;whiteSpace=wrap;html=1;" vertex="1" parent="1">
          <mxGeometry x="440" y="40" width="220" height="120" as="geometry" />
        </mxCell>
        <mxCell id="xVB03OqdfiutpDRsIpEK-31" value="" style="group" vertex="1" connectable="0" parent="1">
          <mxGeometry x="110" y="30" width="220" height="140" as="geometry" />
        </mxCell>
        <mxCell id="xVB03OqdfiutpDRsIpEK-28" value="" style="rounded=0;whiteSpace=wrap;html=1;" vertex="1" parent="xVB03OqdfiutpDRsIpEK-31">
          <mxGeometry width="220" height="140" as="geometry" />
        </mxCell>
        <mxCell id="xVB03OqdfiutpDRsIpEK-22" value="Tool" style="rounded=0;whiteSpace=wrap;html=1;" vertex="1" parent="xVB03OqdfiutpDRsIpEK-31">
          <mxGeometry x="30" y="20" width="120" height="60" as="geometry" />
        </mxCell>
        <mxCell id="xVB03OqdfiutpDRsIpEK-23" value="Tool" style="rounded=0;whiteSpace=wrap;html=1;" vertex="1" parent="xVB03OqdfiutpDRsIpEK-31">
          <mxGeometry x="40" y="30" width="120" height="60" as="geometry" />
        </mxCell>
        <mxCell id="xVB03OqdfiutpDRsIpEK-24" value="Tool" style="rounded=0;whiteSpace=wrap;html=1;" vertex="1" parent="xVB03OqdfiutpDRsIpEK-31">
          <mxGeometry x="50" y="40" width="120" height="60" as="geometry" />
        </mxCell>
        <mxCell id="xVB03OqdfiutpDRsIpEK-25" value="Tool" style="rounded=0;whiteSpace=wrap;html=1;" vertex="1" parent="xVB03OqdfiutpDRsIpEK-31">
          <mxGeometry x="60" y="50" width="120" height="60" as="geometry" />
        </mxCell>
        <mxCell id="xVB03OqdfiutpDRsIpEK-26" value="Tool" style="rounded=0;whiteSpace=wrap;html=1;" vertex="1" parent="xVB03OqdfiutpDRsIpEK-31">
          <mxGeometry x="70" y="60" width="120" height="60" as="geometry" />
        </mxCell>
        <mxCell id="xVB03OqdfiutpDRsIpEK-41" style="edgeStyle=orthogonalEdgeStyle;rounded=0;orthogonalLoop=1;jettySize=auto;html=1;exitX=1;exitY=0.5;exitDx=0;exitDy=0;entryX=0;entryY=0.5;entryDx=0;entryDy=0;" edge="1" parent="1" source="xVB03OqdfiutpDRsIpEK-28" target="xVB03OqdfiutpDRsIpEK-2">
          <mxGeometry relative="1" as="geometry" />
        </mxCell>
      </root>
    </mxGraphModel>
  </diagram>
</mxfile>
